<svg xmlns="http://www.w3.org/2000/svg" viewBox="0 0 100 120" width="100" height="120">
  <!-- Russian Coat of Arms simplified version -->
  <defs>
    <linearGradient id="goldGradient" x1="0%" y1="0%" x2="100%" y2="100%">
      <stop offset="0%" style="stop-color:#FFD700;stop-opacity:1" />
      <stop offset="100%" style="stop-color:#B8860B;stop-opacity:1" />
    </linearGradient>
    <linearGradient id="redGradient" x1="0%" y1="0%" x2="100%" y2="100%">
      <stop offset="0%" style="stop-color:#DC143C;stop-opacity:1" />
      <stop offset="100%" style="stop-color:#8B0000;stop-opacity:1" />
    </linearGradient>
  </defs>
  
  <!-- Shield background -->
  <path d="M50 10 L85 25 L85 70 Q85 90 50 110 Q15 90 15 70 L15 25 Z" fill="url(#redGradient)" stroke="#B8860B" stroke-width="2"/>
  
  <!-- Double-headed eagle body -->
  <ellipse cx="50" cy="60" rx="20" ry="15" fill="url(#goldGradient)"/>
  
  <!-- Left eagle head -->
  <circle cx="35" cy="45" r="8" fill="url(#goldGradient)"/>
  <path d="M27 42 Q25 40 23 42 Q25 44 27 42" fill="#8B0000"/>
  <circle cx="32" cy="43" r="1.5" fill="#000"/>
  
  <!-- Right eagle head -->
  <circle cx="65" cy="45" r="8" fill="url(#goldGradient)"/>
  <path d="M73 42 Q75 40 77 42 Q75 44 73 42" fill="#8B0000"/>
  <circle cx="68" cy="43" r="1.5" fill="#000"/>
  
  <!-- Wings -->
  <ellipse cx="30" cy="55" rx="12" ry="20" fill="url(#goldGradient)" transform="rotate(-30 30 55)"/>
  <ellipse cx="70" cy="55" rx="12" ry="20" fill="url(#goldGradient)" transform="rotate(30 70 55)"/>
  
  <!-- Crown -->
  <rect x="45" y="25" width="10" height="8" fill="url(#goldGradient)"/>
  <polygon points="42,25 45,20 50,22 55,20 58,25" fill="url(#goldGradient)"/>
  <circle cx="47" cy="22" r="1" fill="#DC143C"/>
  <circle cx="50" cy="20" r="1" fill="#DC143C"/>
  <circle cx="53" cy="22" r="1" fill="#DC143C"/>
  
  <!-- Scepter and orb (simplified) -->
  <line x1="35" y1="75" x2="35" y2="85" stroke="url(#goldGradient)" stroke-width="2"/>
  <circle cx="35" cy="87" r="3" fill="url(#goldGradient)"/>
  
  <line x1="65" y1="75" x2="65" y2="85" stroke="url(#goldGradient)" stroke-width="2"/>
  <circle cx="65" cy="87" r="3" fill="url(#goldGradient)"/>
  
  <!-- Central shield -->
  <ellipse cx="50" cy="65" rx="8" ry="10" fill="#FFF" stroke="url(#goldGradient)" stroke-width="1"/>
  <path d="M50 58 L52 62 L50 66 L48 62 Z" fill="#DC143C"/>
  
  <!-- Decorative elements -->
  <circle cx="50" cy="35" r="2" fill="url(#goldGradient)"/>
  <path d="M40 70 Q50 75 60 70" stroke="url(#goldGradient)" stroke-width="1" fill="none"/>
</svg>